<?xml version="1.0" encoding="UTF-8" standalone="no"?>
<!-- Generator: Adobe Illustrator 14.0.0, SVG Export Plug-In . SVG Version: 6.00 Build 43363)  -->
<svg xmlns:dc="http://purl.org/dc/elements/1.1/" xmlns:cc="http://creativecommons.org/ns#" xmlns:rdf="http://www.w3.org/1999/02/22-rdf-syntax-ns#" xmlns:svg="http://www.w3.org/2000/svg" xmlns="http://www.w3.org/2000/svg" xmlns:sodipodi="http://sodipodi.sourceforge.net/DTD/sodipodi-0.dtd" xmlns:inkscape="http://www.inkscape.org/namespaces/inkscape" version="1.1" id="Layer_1" x="0px" y="0px" width="859" height="157" viewBox="0 0 859 157" enable-background="new 0 0 783 1128" xml:space="preserve" inkscape:version="0.47 r22583" sodipodi:docname="SanDisk logo.svg"><metadata id="metadata101"><rdf:RDF><cc:Work rdf:about=""><dc:format>image/svg+xml</dc:format><dc:type rdf:resource="http://purl.org/dc/dcmitype/StillImage"/></cc:Work></rdf:RDF></metadata><defs id="defs99"><inkscape:perspective sodipodi:type="inkscape:persp3d" inkscape:vp_x="0 : 564 : 1" inkscape:vp_y="0 : 1000 : 0" inkscape:vp_z="783 : 564 : 1" inkscape:persp3d-origin="391.5 : 376 : 1" id="perspective103"/>
	<defs id="defs5">
		<rect height="38.259998" width="151.534" y="62.573002" x="498.271" id="SVGID_1_"/>
	</defs>
	
	
</defs><sodipodi:namedview pagecolor="#ffffff" bordercolor="#666666" borderopacity="1" objecttolerance="10" gridtolerance="10" guidetolerance="10" inkscape:pageopacity="0" inkscape:pageshadow="2" inkscape:window-width="791" inkscape:window-height="787" id="namedview97" showgrid="false" inkscape:zoom="0.80442328" inkscape:cx="429.50025" inkscape:cy="78.5" inkscape:window-x="-17" inkscape:window-y="20" inkscape:window-maximized="0" inkscape:current-layer="Layer_1"/>






















<path style="fill:#ed1c2e" id="path11" d="M 46.6549,58.67498 C 42.4763,56.73588 28.9587,51.25815 24.4528,40.29798 18.6585,26.75516 25.7402,9.99368 45.0496,9.34527 c 15.1264,-0.6422 27.6806,13.5425 32.1866,22.56891 1.9283,3.54349 4.1759,10.63628 5.139,19.02007 1.298,0 5.4762,0 5.4762,0 l 0.33,-46.09943 c 0,0 -3.8622,0 -5.8018,0 -0.642,2.57637 -0.642,5.15886 -2.5662,7.09247 -2.259,3.22509 -9.6561,-0.6508 -12.5513,-1.93361 C 63.0763,8.05379 54.3791,4.5103 43.1224,4.18641 c -17.0569,0 -42.8059,14.18495 -42.8059,45.45637 0,28.69489 35.0816,39.01277 45.3807,42.55626 7.0791,2.25782 28.6465,8.708 29.9384,27.08547 0.965,20.62949 -12.8727,29.01329 -23.1726,30.30431 -9.3356,0.967 -18.3523,-7.41668 -24.462,-14.18512 -10.9436,-11.60889 -21.24,-33.52985 -21.24,-43.52337 0,-2.25766 0,-5.4826 0,-5.4826 H 0 v 69.63546 h 6.4395 c 0,0 0,-6.12566 2.2504,-8.0599 1.6115,-1.60925 4.5059,-1.93377 6.7577,-1.93377 6.76,0 21.5659,9.3506 37.0139,9.3506 21.2421,0 45.7027,-17.7344 45.7027,-48.35757 C 98.1442,71.56924 63.717,66.41038 46.6549,58.67498 m 112.0039,49.64325 c 0,4.84031 -0.33,9.35092 -1.6052,13.2183 -2.8988,8.3838 -6.7607,15.15238 -15.4476,15.15238 -11.5865,0 -16.4199,-7.41118 -16.0924,-23.53037 0.651,-27.40388 17.6977,-26.11852 33.1452,-26.11852 v 21.27821 z M 274.2038,12.8941 c 47.306,-8.3838 85.6128,22.88777 85.6128,62.86704 0,48.68208 -37.9768,69.95998 -52.4656,69.95998 -4.5059,0 -9.6549,0 -12.5535,0 -0.33,0 -0.651,-0.3226 -0.651,-0.6508 0,-7.73539 0,-68.02583 0,-72.21215 0,-8.70788 -7.724,-30.95287 -31.8678,-30.95287 -17.0529,0 -23.491,13.86119 -26.7033,17.08613 0,-3.54349 0,-11.60316 0,-11.60316 h -46.0249 v 3.54349 h 17.3809 v 94.13893 c 0,0.3223 -0.33,0.9668 -0.651,0.9668 H 195.98 c -8.372,-1.29102 -9.0146,-9.66917 -9.0146,-12.89417 V 64.47499 c 0,-7.741 -2.2523,-11.9329 -9.3395,-15.47639 -9.6465,-5.15885 -20.9197,-7.09277 -31.863,-7.09277 -15.1239,0 -41.1908,5.15881 -41.1908,24.82726 0,8.05952 6.1144,11.92729 12.8713,11.92729 5.8016,0 11.9159,-4.51617 11.9159,-11.28465 0,-4.83454 -1.9396,-10.31761 -3.2193,-12.25145 -3.862,-4.83465 9.6524,-8.05964 18.9859,-8.05964 4.1862,0 13.5198,2.57658 13.5198,9.35081 v 25.14568 c -22.1994,-1.29107 -58.8913,-0.9667 -59.2212,35.78762 0,23.85458 18.3545,32.23838 30.2534,32.23838 13.8385,0 19.9584,-7.09273 28.9678,-18.37726 2.5766,19.98682 24.7817,18.37726 22.2053,18.37726 -1.2856,0 66.3024,0 66.3024,0 v -3.86756 h -10.6241 c -0.651,0 -0.963,-0.3226 -0.963,-0.6508 0,-6.76844 0,-55.12601 0,-59.31791 0,-5.48297 4.8289,-37.07869 19.6289,-37.07869 6.7567,0 9.9817,8.3838 9.9817,13.21844 0,4.51608 0,74.79436 0,83.17816 0,0.3226 -0.66,0.6508 -0.967,0.6508 h -11.9151 v 3.86779 c 0,0 65.6654,0 72.0984,0 25.7429,0 68.555,-25.79414 68.555,-74.47598 0,-54.15903 -62.1163,-89.6224 -118.761,-62.21867 z m 140.6451,24.1791 c 8.3723,0 15.124,-6.76844 15.124,-15.15223 0,-8.70847 -6.7559,-15.4769 -15.124,-15.4769 -8.3681,0 -15.4487,6.76843 -15.4487,15.4769 0,8.38379 7.0803,15.15223 15.4487,15.15223 z m 68.876,48.03305 c -14.8119,-4.5103 -27.6792,-8.37799 -27.6792,-21.2779 0,-5.15337 4.8223,-16.11919 15.7658,-16.11919 12.5571,0 28.9688,20.31109 29.9369,37.39709 3.5359,0 5.7926,0 5.7926,0 V 40.61669 c 0,0 -1.2866,0 -5.7926,0 -2.5748,19.99238 -15.7736,2.58217 -29.2947,2.58217 -13.8332,0 -33.4637,12.8941 -33.4637,33.5294 0,23.21197 14.8106,29.33749 26.7112,32.56258 7.7158,1.93361 30.2539,5.4771 30.2539,22.23936 0,10.31208 -4.8356,18.05862 -15.4564,18.05862 -16.4145,0 -35.0818,-31.27126 -35.0818,-41.5893 0,-1.93377 0,-3.22478 0,-3.22478 h -5.7933 v 40.29797 c 0,0.3224 -0.339,0.9666 -0.651,0.9666 l -9.0136,-0.3207 c -0.651,0 -0.97,-0.3219 -0.97,-0.6507 V 47.06579 l -40.2281,0.322 v 3.54355 h 11.5865 v 94.13899 c 0,0.3224 -0.321,0.651 -0.964,0.651 h -15.7669 v 3.86764 h 56.0021 V 157 h 5.4733 c 0,0 0.652,-11.27888 7.7242,-11.27888 9.0088,0 17.0512,8.37831 27.3564,8.37831 18.0192,0 36.0438,-18.69573 36.0438,-35.13959 0,-19.98642 -13.5144,-28.37022 -32.5043,-33.85359 z m 145.4703,60.93327 v 3.5493 h -52.1338 v -3.8677 h 9.0108 c 0.33,0 0.642,0 0.33,-0.6508 -3.5452,-5.47728 -28.9687,-44.81408 -29.6108,-45.78099 -0.651,-1.28534 -2.2554,-3.21921 -5.1553,0 0,1.93388 0,39.97951 0,45.78099 0,0.6508 0.339,0.9669 0.973,0.9669 h 17.6952 v 3.54932 h -63.7256 v -3.8675 l 15.4586,0.3212 c 0.642,0 0.962,-0.6422 0.962,-0.9667 V 10.63597 H 505.6168 V 7.08701 h 46.0212 v 84.14491 c 0,0 17.3885,-19.66268 22.2102,-25.47527 2.2545,-2.90091 6.7586,-14.82238 -1.6074,-14.82238 -0.969,0 -4.183,0 -4.183,0 v -3.54349 l 42.1654,-0.3224 v 3.86784 c 0,0 -4.5052,0 -7.0809,0 -4.8351,0 -12.5553,0.9667 -29.9373,24.50299 0.651,1.29099 38.2969,58.99934 39.2642,60.93327 1.2863,1.60956 7.081,9.35068 11.5863,9.35068 1.9326,0 5.1485,0.3208 5.1485,0.3208 z M 825.8487,32.23838 797.5311,127.6622 H 641.753 L 665.5756,55.45005 710.634,8.05379 675.2258,79.30463 763.4047,7.41119 702.2532,97.03935 812.9697,22.23937 l -83.0353,96.72047 68.551,-24.82139 -28,32.23838 H 796.559 L 831.637,7.08699 H 678.766 l -39.9206,122.83334 h 33.1518 l -9.0097,20.31109 H 821.6517 L 856.735,32.23838 H 825.8487 z M 848.6991,9.34527 c 1.605,0 2.8924,0 2.8924,-1.93408 0,-1.29101 -1.2874,-1.60941 -2.5748,-1.60941 h -2.5748 v 3.54349 h 2.2572 z m -2.2572,6.76843 h -1.6014 V 4.18641 h 4.5059 c 2.5634,0 4.1762,1.2907 4.1762,3.54898 0,1.93362 -1.2874,2.90058 -3.2183,3.22509 l 3.548,5.15322 h -2.2546 l -2.895,-5.15322 h -2.2603 v 5.15322 z m 2.2572,2.58217 c 4.8235,0 8.3659,-3.54349 8.3659,-8.38379 0,-4.83497 -3.5424,-8.7022 -8.3659,-8.7022 -4.5131,0 -8.375,3.86723 -8.375,8.7022 0,4.8403 3.8619,8.38379 8.375,8.38379 z M 838.3977,10.31208 C 838.3977,4.18641 843.2317,0 848.7027,0 c 5.4726,0 10.2978,4.1919 10.2978,10.31208 0,5.80711 -4.8252,9.99352 -10.2978,9.99352 -5.471,0 -10.305,-4.1919 -10.305,-9.99352 z" clip-path="none"/>
		
	













</svg>